<svg width="139" height="49" viewBox="0 0 139 49" fill="none" xmlns="http://www.w3.org/2000/svg">
<rect width="57" height="49" rx="10" fill="white"/>
<path d="M43.9088 26.8435C43.8286 25.9185 43.0778 24.9842 41.826 24.1147M43.9088 26.8435C43.9504 27.3183 43.8132 27.7623 43.5203 28.1708C42.9252 28.9972 41.6842 29.6755 39.9745 30.158C42.529 29.4365 44.0352 28.2803 43.9088 26.8435ZM43.9088 26.8435C43.8901 26.6427 43.8434 26.4455 43.77 26.2576C43.6122 25.8719 43.3861 25.5178 43.1025 25.2124C42.5537 24.5957 41.7427 23.9975 40.7237 23.4364C40.0885 23.0849 39.3701 22.7503 38.5839 22.4343C39.8665 22.9477 40.9642 23.5165 41.826 24.1147M43.9088 26.8435C44.0552 28.5239 41.9694 29.822 38.5839 30.488M41.826 24.1147C39.071 22.2015 33.8818 20.5966 28.0312 20.0601C19.5212 19.2785 12.8303 21.0468 13.0909 24.013M13.0909 24.013C13.1095 24.2138 13.1562 24.411 13.2296 24.5988C13.3637 24.9503 13.5904 25.3003 13.8972 25.6456C14.446 26.2607 15.2569 26.8589 16.276 27.4216M13.0909 24.013C12.9645 22.5761 14.4707 21.4199 17.0267 20.6984C15.3155 21.1809 14.0745 21.8593 13.4809 22.6871C13.1914 23.0657 13.0525 23.538 13.0909 24.013ZM13.0909 24.013C13.171 24.9395 13.9218 25.8738 15.1737 26.7417M15.1737 26.7417C16.0355 27.3399 17.1347 27.9088 18.4158 28.4221C17.6295 28.1076 16.9111 27.7715 16.276 27.42C17.7405 28.2279 19.6383 28.9571 21.8167 29.5429M15.1737 26.7417C16.9574 27.9797 19.7617 29.0897 23.104 29.8636M40.7252 23.4348C39.2591 22.6285 37.3613 21.8993 35.183 21.315" stroke="black" stroke-width="2.5" stroke-linecap="round"/>
<path d="M33.5474 13.4772C33.9483 13.2259 34.3352 13.007 34.7083 12.825C36.0665 12.1621 37.232 11.9771 38.0614 12.378C38.4869 12.583 38.7983 12.9299 39.0018 13.397C39.1899 13.8348 39.2855 14.376 39.2917 15.0065M33.5474 13.4772C30.7508 15.2424 27.3838 18.6633 24.4639 22.9461C19.6185 30.0532 17.8332 36.855 20.4648 38.1577M33.5474 13.4772C32.9493 13.8549 32.3233 14.3097 31.682 14.8323M39.2917 15.0065C39.2978 15.7419 39.1807 16.599 38.9494 17.5472M39.2917 15.0065C39.3025 16.3262 38.9201 18.0328 38.1832 19.9614M20.4648 38.1577L20.4787 38.1654C20.6545 38.2502 20.8441 38.3088 21.0476 38.3412C21.413 38.4028 21.8215 38.3797 22.2671 38.2841C23.0626 38.1145 23.9706 37.7029 24.9511 37.0893C25.1823 36.946 25.4136 36.7902 25.651 36.6253C26.0457 36.3478 26.4496 36.0425 26.8597 35.708L28.6711 34.2372M20.4648 38.1577C19.1914 37.5272 18.9509 35.6109 19.5907 32.9962" stroke="black" stroke-width="2.5" stroke-linecap="round"/>
<path d="M28.1377 28.0166C28.1161 26.6137 28.1068 25.9123 28.5477 25.6563C28.9902 25.4004 29.593 25.7612 30.7986 26.4811L31.11 26.6661C31.4522 26.8727 31.6234 26.9745 31.8114 26.9976C32.0011 27.0223 32.1845 26.9652 32.5545 26.8496L32.8906 26.7463C34.1902 26.3424 34.8393 26.1404 35.2309 26.4996C35.6209 26.8619 35.4929 27.5464 35.2386 28.9139L35.1738 29.2685C35.1014 29.657 35.0659 29.8528 35.1075 30.0424C35.1507 30.232 35.2679 30.397 35.5022 30.7238L35.7149 31.0229C36.5397 32.1776 36.9514 32.7542 36.7509 33.2321C36.5505 33.71 35.8676 33.7732 34.5063 33.8996L34.1532 33.932C33.7678 33.9675 33.5736 33.986 33.4102 34.08C33.2483 34.1725 33.1357 34.3313 32.9122 34.6489L32.7072 34.9372C31.9178 36.0549 31.5232 36.613 31.0082 36.5482C30.4933 36.4835 30.1989 35.8375 29.6115 34.5471L29.4604 34.2126C29.2924 33.8457 29.2091 33.6622 29.0657 33.5296C28.9224 33.3986 28.7374 33.3323 28.3643 33.1997L28.0251 33.0795C26.7116 32.617 26.0549 32.3857 25.9377 31.8662C25.8205 31.3466 26.32 30.8857 27.3206 29.9622L27.578 29.7233C27.8617 29.4612 28.0051 29.3286 28.0775 29.1528C28.1515 28.9786 28.1484 28.7782 28.1423 28.3805L28.1377 28.0166Z" stroke="black" stroke-width="2.5"/>
<path d="M68.484 24.2C68.484 18.32 72.432 14.12 78.032 14.12C81.98 14.12 85.508 16.556 86.6 20L82.904 21.204C82.428 18.936 80.384 17.34 78.032 17.34C74.756 17.34 72.544 19.916 72.544 24.2C72.544 28.26 74.728 31.116 77.836 31.116C80.776 31.116 82.82 29.296 82.82 26.692V26.412H77.472V23.276H86.852V34H83.464L83.212 31.564C82.092 33.048 80.188 34.28 77.416 34.28C72.18 34.28 68.484 30.108 68.484 24.2ZM103.645 26.748C103.645 31.144 100.649 34.224 96.4488 34.224C92.2488 34.224 89.2528 31.144 89.2528 26.748C89.2528 22.352 92.2488 19.3 96.4488 19.3C100.649 19.3 103.645 22.352 103.645 26.748ZM93.2008 26.748C93.2008 29.464 94.4608 31.172 96.4488 31.172C98.4648 31.172 99.7248 29.464 99.7248 26.748C99.7248 24.088 98.4648 22.408 96.4488 22.408C94.4608 22.408 93.2008 24.088 93.2008 26.748ZM106.334 34V14.344H120.026V17.452H110.338V22.492H119.522V25.628H110.338V34H106.334ZM122.461 34V19.552H126.381V34H122.461ZM122.265 17.984V14.12H126.577V17.984H122.265ZM130.584 29.408V22.38H128.54V19.916L130.584 19.552L131.704 15.716H134.532V19.552H137.444V22.492H134.532V29.352C134.532 30.472 135.008 31.256 136.24 31.256C136.66 31.256 137.08 31.2 137.976 31.004V34.056C137.36 34.196 136.408 34.28 135.708 34.28C132.236 34.28 130.584 32.04 130.584 29.408Z" fill="white"/>
</svg>
