<svg width="139" height="49" viewBox="0 0 139 49" fill="none" xmlns="http://www.w3.org/2000/svg">
<rect width="57" height="49" rx="10" fill="#272727"/>
<path d="M43.909 26.8435C43.8289 25.9185 43.0781 24.9842 41.8262 24.1147M43.909 26.8435C43.9507 27.3183 43.8134 27.7623 43.5205 28.1708C42.9254 28.9972 41.6844 29.6755 39.9747 30.158C42.5292 29.4365 44.0355 28.2803 43.909 26.8435ZM43.909 26.8435C43.8904 26.6427 43.8437 26.4455 43.7703 26.2576C43.6125 25.8719 43.3863 25.5178 43.1027 25.2124C42.5539 24.5957 41.743 23.9975 40.724 23.4364C40.0888 23.0849 39.3704 22.7503 38.5841 22.4343C39.8668 22.9477 40.9644 23.5165 41.8262 24.1147M43.909 26.8435C44.0555 28.5239 41.9696 29.822 38.5841 30.488M41.8262 24.1147C39.0713 22.2015 33.882 20.5966 28.0314 20.0601C19.5214 19.2785 12.8306 21.0468 13.0911 24.013M13.0911 24.013C13.1098 24.2138 13.1565 24.411 13.2299 24.5988C13.364 24.9503 13.5906 25.3003 13.8974 25.6456C14.4462 26.2607 15.2572 26.8589 16.2762 27.4216M13.0911 24.013C12.9647 22.5761 14.4709 21.4199 17.027 20.6984C15.3157 21.1809 14.0747 21.8593 13.4812 22.6871C13.1917 23.0657 13.0527 23.538 13.0911 24.013ZM13.0911 24.013C13.1713 24.9395 13.9221 25.8738 15.1739 26.7417M15.1739 26.7417C16.0357 27.3399 17.1349 27.9088 18.416 28.4221C17.6298 28.1076 16.9114 27.7715 16.2762 27.42C17.7408 28.2279 19.6386 28.9571 21.8169 29.5429M15.1739 26.7417C16.9576 27.9797 19.7619 29.0897 23.1042 29.8636M40.7255 23.4348C39.2594 22.6285 37.3616 21.8993 35.1832 21.315" stroke="white" stroke-width="2.5" stroke-linecap="round"/>
<path d="M33.5474 13.4772C33.9483 13.2259 34.3352 13.007 34.7083 12.825C36.0665 12.1621 37.232 11.9771 38.0614 12.378C38.4869 12.583 38.7983 12.9299 39.0018 13.397C39.1899 13.8348 39.2855 14.376 39.2917 15.0065M33.5474 13.4772C30.7508 15.2424 27.3838 18.6633 24.4639 22.9461C19.6185 30.0532 17.8332 36.855 20.4648 38.1577M33.5474 13.4772C32.9493 13.8549 32.3233 14.3097 31.682 14.8323M39.2917 15.0065C39.2978 15.7419 39.1807 16.599 38.9494 17.5472M39.2917 15.0065C39.3025 16.3262 38.9201 18.0328 38.1832 19.9614M20.4648 38.1577L20.4787 38.1654C20.6545 38.2502 20.8441 38.3088 21.0476 38.3412C21.413 38.4028 21.8215 38.3797 22.2671 38.2841C23.0626 38.1145 23.9706 37.7029 24.9511 37.0893C25.1823 36.946 25.4136 36.7902 25.651 36.6253C26.0457 36.3478 26.4496 36.0425 26.8597 35.708L28.6711 34.2372M20.4648 38.1577C19.1914 37.5272 18.9509 35.6109 19.5907 32.9962" stroke="white" stroke-width="2.5" stroke-linecap="round"/>
<path d="M28.1379 28.0166C28.1163 26.6137 28.1071 25.9123 28.548 25.6563C28.9904 25.4004 29.5932 25.7612 30.7988 26.4811L31.1102 26.6661C31.4525 26.8727 31.6236 26.9745 31.8117 26.9976C32.0013 27.0223 32.1848 26.9652 32.5548 26.8496L32.8909 26.7463C34.1905 26.3424 34.8395 26.1404 35.2311 26.4996C35.6211 26.8619 35.4932 27.5464 35.2388 28.9139L35.1741 29.2685C35.1016 29.657 35.0661 29.8528 35.1078 30.0424C35.1509 30.232 35.2681 30.397 35.5024 30.7238L35.7152 31.0229C36.54 32.1776 36.9516 32.7542 36.7512 33.2321C36.5508 33.71 35.8678 33.7732 34.5065 33.8996L34.1535 33.932C33.7681 33.9675 33.5738 33.986 33.4104 34.08C33.2485 34.1725 33.136 34.3313 32.9124 34.6489L32.7074 34.9372C31.9181 36.0549 31.5234 36.613 31.0085 36.5482C30.4936 36.4835 30.1991 35.8375 29.6117 34.5471L29.4606 34.2126C29.2926 33.8457 29.2094 33.6622 29.066 33.5296C28.9226 33.3986 28.7376 33.3323 28.3645 33.1997L28.0254 33.0795C26.7119 32.617 26.0551 32.3857 25.9379 31.8662C25.8208 31.3466 26.3203 30.8857 27.3208 29.9622L27.5783 29.7233C27.8619 29.4612 28.0053 29.3286 28.0778 29.1528C28.1518 28.9786 28.1487 28.7782 28.1425 28.3805L28.1379 28.0166Z" stroke="white" stroke-width="2.5"/>
<path d="M68.484 24.2C68.484 18.32 72.432 14.12 78.032 14.12C81.98 14.12 85.508 16.556 86.6 20L82.904 21.204C82.428 18.936 80.384 17.34 78.032 17.34C74.756 17.34 72.544 19.916 72.544 24.2C72.544 28.26 74.728 31.116 77.836 31.116C80.776 31.116 82.82 29.296 82.82 26.692V26.412H77.472V23.276H86.852V34H83.464L83.212 31.564C82.092 33.048 80.188 34.28 77.416 34.28C72.18 34.28 68.484 30.108 68.484 24.2ZM103.645 26.748C103.645 31.144 100.649 34.224 96.4488 34.224C92.2488 34.224 89.2528 31.144 89.2528 26.748C89.2528 22.352 92.2488 19.3 96.4488 19.3C100.649 19.3 103.645 22.352 103.645 26.748ZM93.2008 26.748C93.2008 29.464 94.4608 31.172 96.4488 31.172C98.4648 31.172 99.7248 29.464 99.7248 26.748C99.7248 24.088 98.4648 22.408 96.4488 22.408C94.4608 22.408 93.2008 24.088 93.2008 26.748ZM106.334 34V14.344H120.026V17.452H110.338V22.492H119.522V25.628H110.338V34H106.334ZM122.461 34V19.552H126.381V34H122.461ZM122.265 17.984V14.12H126.577V17.984H122.265ZM130.584 29.408V22.38H128.54V19.916L130.584 19.552L131.704 15.716H134.532V19.552H137.444V22.492H134.532V29.352C134.532 30.472 135.008 31.256 136.24 31.256C136.66 31.256 137.08 31.2 137.976 31.004V34.056C137.36 34.196 136.408 34.28 135.708 34.28C132.236 34.28 130.584 32.04 130.584 29.408Z" fill="#272727"/>
</svg>
