<svg width="24" height="24" viewBox="0 0 24 24" fill="none" xmlns="http://www.w3.org/2000/svg">
<path d="M12.5432 15.9299L20.5082 7.57045C20.6412 7.43096 20.7153 7.24565 20.7153 7.05295C20.7153 6.86024 20.6412 6.67493 20.5082 6.53545L20.4992 6.52645C20.4347 6.45859 20.3571 6.40456 20.2711 6.36764C20.1851 6.33072 20.0925 6.31168 19.9989 6.31168C19.9054 6.31168 19.8127 6.33072 19.7267 6.36764C19.6407 6.40456 19.5631 6.45859 19.4987 6.52645L11.9987 14.3984L4.50169 6.52645C4.43723 6.45859 4.35964 6.40456 4.27364 6.36764C4.18764 6.33072 4.09503 6.31168 4.00144 6.31168C3.90785 6.31168 3.81524 6.33072 3.72924 6.36764C3.64324 6.40456 3.56565 6.45859 3.50119 6.52645L3.49219 6.53545C3.35922 6.67493 3.28505 6.86024 3.28505 7.05295C3.28505 7.24565 3.35922 7.43096 3.49219 7.57045L11.4572 15.9299C11.5272 16.0035 11.6115 16.062 11.7048 16.102C11.7982 16.142 11.8986 16.1626 12.0002 16.1626C12.1017 16.1626 12.2022 16.142 12.2956 16.102C12.3889 16.062 12.4731 16.0035 12.5432 15.9299Z" fill="black"/>
</svg>
