<svg width="30" height="31" viewBox="0 0 30 31" fill="none" xmlns="http://www.w3.org/2000/svg">
<path d="M2.49985 15.5054C2.49985 15.0741 2.84985 14.7241 3.2811 14.7241L23.5598 14.7241L15.5461 6.84287C15.4696 6.77177 15.4081 6.68605 15.3653 6.59078C15.3225 6.49551 15.2992 6.39262 15.2968 6.2882C15.2945 6.18377 15.3131 6.07994 15.3515 5.98283C15.39 5.88572 15.4476 5.79731 15.5208 5.72283C15.594 5.64835 15.6814 5.58931 15.7779 5.5492C15.8743 5.50909 15.9778 5.48872 16.0823 5.48931C16.1867 5.48989 16.29 5.51142 16.386 5.55261C16.482 5.5938 16.5687 5.65382 16.6411 5.72912L26.0086 14.941L26.0255 14.9572C26.1067 15.0394 26.1685 15.1387 26.2066 15.2478C26.2446 15.3568 26.2579 15.473 26.2455 15.5879C26.2259 15.7758 26.1386 15.9502 25.9998 16.0785L16.6411 25.281C16.5687 25.3563 16.482 25.4163 16.386 25.4575C16.29 25.4987 16.1867 25.5202 16.0823 25.5208C15.9778 25.5214 15.8743 25.501 15.7779 25.4609C15.6814 25.4208 15.594 25.3618 15.5208 25.2873C15.4476 25.2128 15.39 25.1244 15.3515 25.0273C15.3131 24.9302 15.2945 24.8263 15.2968 24.7219C15.2992 24.6175 15.3225 24.5146 15.3653 24.4193C15.4081 24.3241 15.4696 24.2383 15.5461 24.1672L23.5598 16.286L3.2811 16.286C2.84985 16.286 2.49985 15.9372 2.49985 15.5054Z" fill="#ACACAC"/>
</svg>
