<svg width="82" height="82" viewBox="0 0 82 82" fill="none" xmlns="http://www.w3.org/2000/svg">
<circle cx="41" cy="41" r="41" fill="#D9D9D9"/>
<path d="M47.8347 22.1805C45.9724 20.1698 43.3712 19.0625 40.5001 19.0625C37.6137 19.0625 35.0038 20.1631 33.1501 22.1614C31.2762 24.1817 30.3632 26.9274 30.5776 29.8923C31.0025 35.7416 35.4536 40.5 40.5001 40.5C45.5465 40.5 49.99 35.7426 50.4216 29.8942C50.6388 26.9561 49.7201 24.2161 47.8347 22.1805ZM57.3438 61.9375H23.6563C23.2154 61.9432 22.7787 61.8506 22.3781 61.6663C21.9774 61.4821 21.6229 61.2108 21.3403 60.8723C20.7182 60.1287 20.4675 59.1133 20.6531 58.0864C21.4609 53.6056 23.9817 49.8416 27.9438 47.1992C31.4638 44.8535 35.9226 43.5625 40.5001 43.5625C45.0775 43.5625 49.5363 44.8545 53.0563 47.1992C57.0184 49.8406 59.5392 53.6046 60.347 58.0855C60.5326 59.1123 60.2819 60.1278 59.6598 60.8714C59.3773 61.2101 59.0228 61.4815 58.6222 61.6659C58.2215 61.8503 57.7848 61.9431 57.3438 61.9375Z" fill="white"/>
</svg>
