<svg width="148" height="148" viewBox="0 0 148 148" fill="none" xmlns="http://www.w3.org/2000/svg">
<circle cx="74" cy="74" r="74" fill="#D9D9D9"/>
<path d="M85.6246 43.2168C82.546 39.8929 78.246 38.0625 73.4999 38.0625C68.7285 38.0625 64.4143 39.8818 61.3499 43.1851C58.2523 46.5248 56.7431 51.0636 57.0974 55.9648C57.7999 65.6341 65.1579 73.5 73.4999 73.5C81.842 73.5 89.1874 65.6357 89.9008 55.9679C90.26 51.1111 88.7412 46.5817 85.6246 43.2168ZM101.344 108.938H45.6562C44.9273 108.947 44.2054 108.794 43.5432 108.489C42.8809 108.185 42.2948 107.736 41.8277 107.177C40.7993 105.947 40.3849 104.269 40.6918 102.571C42.027 95.1643 46.1941 88.9422 52.7437 84.5742C58.5624 80.6967 65.9331 78.5625 73.4999 78.5625C81.0668 78.5625 88.4375 80.6982 94.2562 84.5742C100.806 88.9406 104.973 95.1628 106.308 102.57C106.615 104.267 106.201 105.946 105.172 107.175C104.705 107.735 104.119 108.184 103.457 108.489C102.795 108.793 102.073 108.947 101.344 108.938Z" fill="black"/>
</svg>
