<svg width="53" height="35" viewBox="0 0 53 35" fill="none" xmlns="http://www.w3.org/2000/svg">
<path d="M0.5 0H52.5V35H0.5V0ZM26.5 8.75C28.7985 8.75 31.0029 9.67187 32.6283 11.3128C34.2536 12.9538 35.1667 15.1794 35.1667 17.5C35.1667 19.8206 34.2536 22.0462 32.6283 23.6872C31.0029 25.3281 28.7985 26.25 26.5 26.25C24.2015 26.25 21.9971 25.3281 20.3717 23.6872C18.7464 22.0462 17.8333 19.8206 17.8333 17.5C17.8333 15.1794 18.7464 12.9538 20.3717 11.3128C21.9971 9.67187 24.2015 8.75 26.5 8.75ZM12.0556 5.83333C12.0556 7.38043 11.4468 8.86416 10.3633 9.95812C9.27974 11.0521 7.81014 11.6667 6.27778 11.6667V23.3333C7.81014 23.3333 9.27974 23.9479 10.3633 25.0419C11.4468 26.1358 12.0556 27.6196 12.0556 29.1667H40.9444C40.9444 27.6196 41.5532 26.1358 42.6367 25.0419C43.7203 23.9479 45.1899 23.3333 46.7222 23.3333V11.6667C45.1899 11.6667 43.7203 11.0521 42.6367 9.95812C41.5532 8.86416 40.9444 7.38043 40.9444 5.83333H12.0556Z" fill="white"/>
</svg>
