<svg width="36" height="36" viewBox="0 0 36 36" fill="none" xmlns="http://www.w3.org/2000/svg">
<path fill-rule="evenodd" clip-rule="evenodd" d="M4.875 15.045C4.875 10.995 8.43 7.875 12.6 7.875C14.7495 7.875 16.6425 8.883 18 10.188C19.3575 8.883 21.249 7.875 23.4 7.875C27.57 7.875 31.125 10.995 31.125 15.045C31.125 17.82 29.9415 20.259 28.302 22.323C26.667 24.381 24.525 26.1285 22.476 27.549C21.6915 28.092 20.901 28.5915 20.175 28.9605C19.4955 29.307 18.7125 29.625 18 29.625C17.2875 29.625 16.506 29.307 15.825 28.9605C15.0286 28.5405 14.2605 28.069 13.5255 27.549C11.475 26.1285 9.3345 24.381 7.698 22.323C6.0585 20.259 4.875 17.82 4.875 15.045ZM12.6 10.125C9.48 10.125 7.125 12.42 7.125 15.045C7.125 17.1495 8.019 19.11 9.459 20.922C10.902 22.737 12.8445 24.3405 14.8065 25.6995C15.549 26.214 16.2465 26.6505 16.8465 26.9565C17.4885 27.2835 17.8605 27.375 18 27.375C18.1395 27.375 18.5115 27.2835 19.155 26.955C19.8614 26.5809 20.5428 26.1616 21.195 25.6995C23.1555 24.3405 25.098 22.7385 26.541 20.922C27.981 19.11 28.875 17.1495 28.875 15.045C28.875 12.42 26.52 10.125 23.4 10.125C21.609 10.125 19.935 11.1945 18.8925 12.5535C18.7875 12.6904 18.6523 12.8013 18.4976 12.8776C18.3428 12.9539 18.1726 12.9936 18 12.9936C17.8274 12.9936 17.6572 12.9539 17.5024 12.8776C17.3477 12.8013 17.2125 12.6904 17.1075 12.5535C16.065 11.1945 14.3925 10.125 12.6 10.125Z" fill="white"/>
</svg>
