<svg width="37" height="37" viewBox="0 0 37 37" fill="none" xmlns="http://www.w3.org/2000/svg">
<path fill-rule="evenodd" clip-rule="evenodd" d="M5.01025 15.4629C5.01025 11.3004 8.664 8.09375 12.9498 8.09375C15.159 8.09375 17.1046 9.12975 18.4998 10.471C19.895 9.12975 21.8391 8.09375 24.0498 8.09375C28.3357 8.09375 31.9894 11.3004 31.9894 15.4629C31.9894 18.315 30.773 20.8217 29.088 22.9431C27.4076 25.0582 25.2061 26.8543 23.1002 28.3142C22.2939 28.8723 21.4814 29.3857 20.7353 29.765C20.0369 30.1211 19.2321 30.4479 18.4998 30.4479C17.7675 30.4479 16.9643 30.1211 16.2644 29.765C15.4459 29.3333 14.6564 28.8487 13.901 28.3142C11.7936 26.8543 9.59363 25.0582 7.91167 22.9431C6.22663 20.8217 5.01025 18.315 5.01025 15.4629ZM12.9498 10.4062C9.74317 10.4062 7.32275 12.765 7.32275 15.4629C7.32275 17.6259 8.24159 19.6408 9.72159 21.5032C11.2047 23.3686 13.2011 25.0166 15.2176 26.4134C15.9808 26.9422 16.6976 27.3908 17.3143 27.7053C17.9741 28.0414 18.3565 28.1354 18.4998 28.1354C18.6432 28.1354 19.0255 28.0414 19.6869 27.7037C20.4129 27.3193 21.1133 26.8883 21.7836 26.4134C23.7985 25.0166 25.795 23.3701 27.2781 21.5032C28.7581 19.6408 29.6769 17.6259 29.6769 15.4629C29.6769 12.765 27.2565 10.4062 24.0498 10.4062C22.2091 10.4062 20.4886 11.5055 19.4171 12.9022C19.3092 13.0429 19.1703 13.1569 19.0112 13.2353C18.8522 13.3138 18.6772 13.3545 18.4998 13.3545C18.3225 13.3545 18.1475 13.3138 17.9885 13.2353C17.8294 13.1569 17.6905 13.0429 17.5825 12.9022C16.5111 11.5055 14.7921 10.4062 12.9498 10.4062Z" fill="#272727"/>
</svg>
