<svg width="36" height="37" viewBox="0 0 36 37" fill="none" xmlns="http://www.w3.org/2000/svg">
<path d="M25.875 18.5C26.7701 18.5 27.6286 18.8556 28.2615 19.4885C28.8944 20.1214 29.25 20.9799 29.25 21.875V23C29.25 27.4347 25.065 32 18 32C10.935 32 6.75 27.4347 6.75 23V21.875C6.75 20.9799 7.10558 20.1214 7.73851 19.4885C8.37145 18.8556 9.22989 18.5 10.125 18.5H25.875ZM25.875 20.75H10.125C9.82663 20.75 9.54048 20.8685 9.3295 21.0795C9.11853 21.2905 9 21.5766 9 21.875V23C9 26.2355 12.222 29.75 18 29.75C23.778 29.75 27 26.2355 27 23V21.875C27 21.5766 26.8815 21.2905 26.6705 21.0795C26.4595 20.8685 26.1734 20.75 25.875 20.75ZM18 3.875C19.641 3.875 21.2148 4.5269 22.3752 5.68728C23.5356 6.84766 24.1875 8.42147 24.1875 10.0625C24.1875 11.7035 23.5356 13.2773 22.3752 14.4377C21.2148 15.5981 19.641 16.25 18 16.25C16.359 16.25 14.7852 15.5981 13.6248 14.4377C12.4644 13.2773 11.8125 11.7035 11.8125 10.0625C11.8125 8.42147 12.4644 6.84766 13.6248 5.68728C14.7852 4.5269 16.359 3.875 18 3.875ZM18 6.125C16.9557 6.125 15.9542 6.53984 15.2158 7.27827C14.4773 8.01669 14.0625 9.01821 14.0625 10.0625C14.0625 11.1068 14.4773 12.1083 15.2158 12.8467C15.9542 13.5852 16.9557 14 18 14C19.0443 14 20.0458 13.5852 20.7842 12.8467C21.5227 12.1083 21.9375 11.1068 21.9375 10.0625C21.9375 9.01821 21.5227 8.01669 20.7842 7.27827C20.0458 6.53984 19.0443 6.125 18 6.125Z" fill="black"/>
</svg>
