<svg width="33" height="33" viewBox="0 0 33 33" fill="none" xmlns="http://www.w3.org/2000/svg">
<path d="M27.8438 5.15625H5.15625C4.60924 5.15625 4.08464 5.37355 3.69784 5.76034C3.31105 6.14714 3.09375 6.67174 3.09375 7.21875V25.7812C3.09375 26.3283 3.31105 26.8529 3.69784 27.2397C4.08464 27.6265 4.60924 27.8438 5.15625 27.8438H27.8438C28.3908 27.8438 28.9154 27.6265 29.3022 27.2397C29.689 26.8529 29.9062 26.3283 29.9062 25.7812V7.21875C29.9062 6.67174 29.689 6.14714 29.3022 5.76034C28.9154 5.37355 28.3908 5.15625 27.8438 5.15625ZM27.8438 25.7812H5.15625V7.21875H27.8438V25.7812ZM22.6875 11.3438C22.6875 12.9848 22.0356 14.5586 20.8752 15.719C19.7148 16.8794 18.141 17.5312 16.5 17.5312C14.859 17.5312 13.2852 16.8794 12.1248 15.719C10.9644 14.5586 10.3125 12.9848 10.3125 11.3438C10.3125 11.0702 10.4211 10.8079 10.6145 10.6145C10.8079 10.4211 11.0702 10.3125 11.3438 10.3125C11.6173 10.3125 11.8796 10.4211 12.073 10.6145C12.2664 10.8079 12.375 11.0702 12.375 11.3438C12.375 12.4378 12.8096 13.487 13.5832 14.2606C14.3568 15.0342 15.406 15.4688 16.5 15.4688C17.594 15.4688 18.6432 15.0342 19.4168 14.2606C20.1904 13.487 20.625 12.4378 20.625 11.3438C20.625 11.0702 20.7336 10.8079 20.927 10.6145C21.1204 10.4211 21.3827 10.3125 21.6562 10.3125C21.9298 10.3125 22.1921 10.4211 22.3855 10.6145C22.5789 10.8079 22.6875 11.0702 22.6875 11.3438Z" fill="black"/>
</svg>
