<svg width="41" height="43" viewBox="0 0 41 43" fill="none" xmlns="http://www.w3.org/2000/svg">
<path d="M41 38.2557V5.046C41 2.43667 38.9432 0.301758 36.4331 0.301758H4.56694C1.9475 0.301758 0 2.32518 0 5.046V38.2557C0 40.9789 1.9475 43 4.56694 43H36.4331C37.6418 42.9981 38.8006 42.498 39.6564 41.6091C40.5121 40.7201 40.9952 39.5145 41 38.2557ZM32.308 25.4629C32.308 25.4629 34.8864 28.1125 35.5219 29.3413C35.5402 29.3674 35.547 29.3911 35.5538 29.4006C35.8112 29.8513 35.8773 30.2071 35.7474 30.4681C35.5333 30.9022 34.8044 31.1204 34.5562 31.1394H30.0029C29.684 31.1394 29.0234 31.054 28.2217 30.4775C27.6067 30.0316 26.9985 29.2938 26.4063 28.5751C25.5225 27.5076 24.7572 26.5825 23.9873 26.5825C23.8896 26.5823 23.7926 26.5991 23.7003 26.6323C23.1149 26.8268 22.3723 27.6927 22.3723 30.0055C22.3723 30.729 21.8257 31.1417 21.4384 31.1417H19.352C18.6413 31.1417 14.9399 30.8832 11.6622 27.2799C7.63967 22.8678 4.02711 14.0174 3.99522 13.9391C3.76744 13.3674 4.23894 13.0567 4.75144 13.0567H9.35256C9.96983 13.0567 10.168 13.4457 10.3092 13.7944C10.4687 14.1905 11.07 15.7894 12.054 17.5874C13.6553 20.5122 14.6416 21.7031 15.4274 21.7031C15.5743 21.7022 15.7186 21.6622 15.8465 21.5868C16.8738 20.9962 16.6824 17.1818 16.6369 16.3942C16.6369 16.2448 16.6346 14.6887 16.1107 13.9415C15.7326 13.4006 15.0926 13.1942 14.7053 13.116C14.8632 12.8894 15.071 12.7055 15.3112 12.5799C16.0151 12.2146 17.2838 12.1624 18.5457 12.1624H19.2472C20.6162 12.1814 20.9715 12.2739 21.4658 12.4043C22.4657 12.6534 22.4862 13.3295 22.3974 15.6304C22.3723 16.2851 22.345 17.0276 22.345 17.8982C22.345 18.0856 22.3382 18.2919 22.3382 18.5054C22.3063 19.682 22.2698 21.0128 23.0671 21.5584C23.1702 21.6256 23.2893 21.6617 23.411 21.6627C23.6889 21.6627 24.5203 21.6627 26.773 17.6372C27.7638 15.8605 28.5269 13.7636 28.5793 13.607C28.6589 13.4377 28.7741 13.2893 28.9164 13.1729C29.0331 13.1098 29.163 13.078 29.2945 13.0804H34.7042C35.2964 13.0804 35.6973 13.1729 35.7725 13.4077C35.9023 13.7849 35.7474 14.9354 33.2761 18.4129L32.1759 19.9311C29.9346 22.9864 29.9346 23.1429 32.308 25.4629Z" fill="#F9F9F9"/>
</svg>
