<svg width="36" height="36" viewBox="0 0 36 36" fill="none" xmlns="http://www.w3.org/2000/svg">
<path d="M33.4083 18.8114L28.9083 7.56141C28.834 7.37584 28.6963 7.22267 28.5196 7.12919C28.3429 7.0357 28.1388 7.00797 27.9436 7.05094L18.8438 9.07312V5.625C18.8438 5.40122 18.7549 5.18661 18.5966 5.02838C18.4384 4.87014 18.2238 4.78125 18 4.78125C17.7762 4.78125 17.5616 4.87014 17.4034 5.02838C17.2451 5.18661 17.1562 5.40122 17.1562 5.625V9.44859L7.69219 11.558C7.55811 11.5878 7.43333 11.6498 7.32869 11.7388C7.22405 11.8277 7.1427 11.9409 7.09172 12.0684L2.59172 23.3184C2.55296 23.4161 2.53247 23.52 2.53125 23.625C2.53125 26.6991 5.80922 27.8438 7.875 27.8438C9.94078 27.8438 13.2188 26.6991 13.2188 23.625C13.2184 23.5176 13.1979 23.4112 13.1583 23.3114L9.02672 12.9839L17.1562 11.1769V29.5312H14.625C14.4012 29.5312 14.1866 29.6201 14.0284 29.7784C13.8701 29.9366 13.7812 30.1512 13.7812 30.375C13.7812 30.5988 13.8701 30.8134 14.0284 30.9716C14.1866 31.1299 14.4012 31.2188 14.625 31.2188H21.375C21.5988 31.2188 21.8134 31.1299 21.9716 30.9716C22.1299 30.8134 22.2188 30.5988 22.2188 30.375C22.2188 30.1512 22.1299 29.9366 21.9716 29.7784C21.8134 29.6201 21.5988 29.5312 21.375 29.5312H18.8438V10.8014L26.7483 9.045L22.8417 18.8114C22.8021 18.9112 22.7816 19.0176 22.7812 19.125C22.7812 22.1991 26.0592 23.3438 28.125 23.3438C30.1908 23.3438 33.4688 22.1991 33.4688 19.125C33.4684 19.0176 33.4479 18.9112 33.4083 18.8114ZM7.875 26.1562C7.01514 26.1495 6.17044 25.9292 5.41688 25.515C4.66172 25.0748 4.27078 24.5053 4.22297 23.7755L7.87922 14.6475L11.5355 23.7755C11.3991 25.7133 8.80031 26.1562 7.875 26.1562ZM28.125 21.6562C27.2651 21.6495 26.4204 21.4292 25.6669 21.015C24.9117 20.5748 24.5208 20.0053 24.473 19.2755L28.1292 10.1475L31.7855 19.2755C31.6491 21.2133 29.0503 21.6562 28.125 21.6562Z" fill="white"/>
</svg>
