<svg width="27" height="22" viewBox="0 0 27 22" fill="none" xmlns="http://www.w3.org/2000/svg">
<path d="M26.4338 11.5729L22.7195 2.40625C22.6378 2.20434 22.4859 2.0377 22.2912 1.93611C22.0964 1.83452 21.8714 1.80459 21.6563 1.85167L14.4286 3.4375V0.916667C14.4286 0.673552 14.3307 0.440394 14.1566 0.268486C13.9825 0.0965773 13.7463 0 13.5 0C13.2537 0 13.0175 0.0965773 12.8434 0.268486C12.6693 0.440394 12.5714 0.673552 12.5714 0.916667V3.84771L4.9409 5.52177C4.79378 5.55385 4.65678 5.62079 4.54172 5.71681C4.42666 5.81283 4.33699 5.93505 4.28046 6.07292V6.07979L0.566178 15.2396C0.521745 15.3488 0.499274 15.4656 0.500018 15.5833C0.500018 18.2543 3.34841 19.25 5.14287 19.25C6.93733 19.25 9.78572 18.2543 9.78572 15.5833C9.78646 15.4656 9.76399 15.3488 9.71956 15.2396L6.41037 7.07781L12.5714 5.72917V20.1667H10.7143C10.468 20.1667 10.2318 20.2632 10.0577 20.4352C9.88355 20.6071 9.78572 20.8402 9.78572 21.0833C9.78572 21.3264 9.88355 21.5596 10.0577 21.7315C10.2318 21.9034 10.468 22 10.7143 22H16.2857C16.532 22 16.7682 21.9034 16.9423 21.7315C17.1164 21.5596 17.2143 21.3264 17.2143 21.0833C17.2143 20.8402 17.1164 20.6071 16.9423 20.4352C16.7682 20.2632 16.532 20.1667 16.2857 20.1667H14.4286V5.31896L20.3482 4.02187L17.2804 11.5729C17.236 11.6822 17.2135 11.7989 17.2143 11.9167C17.2143 14.5876 20.0627 15.5833 21.8571 15.5833C23.6516 15.5833 26.5 14.5876 26.5 11.9167C26.5007 11.7989 26.4783 11.6822 26.4338 11.5729ZM5.14287 17.4167C4.26885 17.4167 2.50109 17.003 2.36528 15.7392L5.14287 8.88479L7.92045 15.7392C7.78465 17.003 6.01688 17.4167 5.14287 17.4167ZM21.8571 13.75C20.9831 13.75 19.2153 13.3364 19.0795 12.0725L21.8571 5.21813L24.6347 12.0725C24.4989 13.3364 22.7311 13.75 21.8571 13.75Z" fill="#272727"/>
</svg>
