<svg width="41" height="42" viewBox="0 0 41 42" fill="none" xmlns="http://www.w3.org/2000/svg">
<rect y="0.301758" width="41" height="41" rx="5" fill="#F9F9F9"/>
<path d="M17.9168 24.6767L24.6206 20.8017L17.9168 16.9267V24.6767ZM32.8485 14.5629C33.0164 15.17 33.1327 15.9838 33.2102 17.0171C33.3006 18.0504 33.3393 18.9417 33.3393 19.7167L33.4168 20.8017C33.4168 23.6304 33.2102 25.71 32.8485 27.0404C32.5256 28.2029 31.7764 28.9521 30.6139 29.275C30.0068 29.4429 28.896 29.5592 27.191 29.6367C25.5118 29.7271 23.9747 29.7658 22.5539 29.7658L20.5002 29.8433C15.0881 29.8433 11.7168 29.6367 10.3864 29.275C9.22391 28.9521 8.47475 28.2029 8.15183 27.0404C7.98391 26.4333 7.86766 25.6196 7.79016 24.5863C7.69975 23.5529 7.661 22.6617 7.661 21.8867L7.5835 20.8017C7.5835 17.9729 7.79016 15.8933 8.15183 14.5629C8.47475 13.4004 9.22391 12.6513 10.3864 12.3283C10.9935 12.1604 12.1043 12.0442 13.8093 11.9667C15.4885 11.8763 17.0256 11.8375 18.4464 11.8375L20.5002 11.76C25.9122 11.76 29.2835 11.9667 30.6139 12.3283C31.7764 12.6513 32.5256 13.4004 32.8485 14.5629Z" fill="black"/>
</svg>
